<svg xmlns="http://www.w3.org/2000/svg" xmlns:xlink="http://www.w3.org/1999/xlink" width="44" height="45" viewBox="0 0 44 45"><defs><path id="2pcma" d="M1265 44.606c5.133 0 9.308 4.188 9.308 9.337 0 2.498-.982 5.334-2.628 7.584-1.86 2.546-4.233 3.948-6.68 3.948s-4.819-1.402-6.68-3.948c-1.645-2.25-2.628-5.086-2.628-7.584 0-5.149 4.176-9.337 9.308-9.337zm0 18.879c3.876 0 7.324-5.336 7.323-9.542 0-4.051-3.285-7.347-7.323-7.347-4.039 0-7.323 3.296-7.323 7.347 0 2.06.86 4.514 2.243 6.407 1.456 1.992 3.308 3.135 5.08 3.135zm0-25.486c12.13 0 22 9.9 22 22.07s-9.869 22.069-22 22.069c-12.13 0-22-9.9-22-22.07C1243 47.9 1252.87 38 1265 38zm0 42.148a19.85 19.85 0 0 0 10.817-3.191 10.866 10.866 0 0 0-3.823-7.899c-.92-.783-2.27-.866-3.354-.206-1.173.713-2.398 1.074-3.64 1.074s-2.467-.361-3.64-1.075c-1.086-.66-2.439-.574-3.364.215a10.854 10.854 0 0 0-3.813 7.89A19.845 19.845 0 0 0 1265 80.147zm12.687-4.56c4.472-3.686 7.328-9.274 7.328-15.518 0-11.071-8.978-20.079-20.015-20.079-11.036 0-20.016 9.008-20.016 20.079 0 6.244 2.856 11.83 7.326 15.516a12.845 12.845 0 0 1 4.402-8.037c1.577-1.344 3.858-1.505 5.676-.4 1.717 1.044 3.507 1.044 5.223 0 1.816-1.103 4.093-.946 5.666.39a12.856 12.856 0 0 1 4.41 8.049z"/></defs><g><g transform="translate(-1243 -38)"><use fill="#2f2f2f" xlink:href="#2pcma"/></g></g></svg>