<svg width="32" height="32" viewBox="0 0 32 32" fill="none" xmlns="http://www.w3.org/2000/svg">
<g filter="url(#filter0_d)">
<path fill-rule="evenodd" clip-rule="evenodd" d="M16 27C22.6274 27 28 21.6274 28 15C28 8.37258 22.6274 3 16 3C9.37258 3 4 8.37258 4 15C4 21.6274 9.37258 27 16 27Z" fill="url(#paint0_radial)"/>
</g>
<g filter="url(#filter1_d)">
<path fill-rule="evenodd" clip-rule="evenodd" d="M19.0356 7.50012C18.8455 7.50012 18.665 7.58368 18.542 7.72863L14.3339 12.6876L15.2124 12.9859C15.3578 13.0353 15.4561 13.1713 15.4573 13.3249L15.4796 16.0873C15.4809 16.2447 15.3799 16.3849 15.2301 16.4335L14.2605 16.7486L18.5416 22.25C18.6642 22.4076 18.8527 22.4998 19.0525 22.4998H20.1577C20.6473 22.4998 20.9597 21.9774 20.7281 21.5461L17.1993 14.975C17.0986 14.7874 17.0965 14.5622 17.1938 14.3729L20.2405 8.44334C20.4618 8.01253 20.149 7.50012 19.6646 7.50012H19.0356ZM11.8592 8.39759C11.8592 7.89361 12.4096 7.58291 12.8411 7.84338L13.4043 8.18339C13.5984 8.30059 13.7171 8.51083 13.7171 8.7376V21.6342C13.7171 22.1251 13.192 22.4374 12.7607 22.2031L12.1975 21.897C11.989 21.7838 11.8592 21.5655 11.8592 21.3282V16.607L11.2612 16.3936C11.1185 16.3426 11.0228 16.208 11.0216 16.0565L10.9993 13.2899C10.998 13.1324 11.099 12.9923 11.2487 12.9436L11.8592 12.7453V8.39759Z" fill="white"/>
</g>
<defs>
<filter id="filter0_d" x="0" y="0" width="32" height="32" filterUnits="userSpaceOnUse" color-interpolation-filters="sRGB">
<feFlood flood-opacity="0" result="BackgroundImageFix"/>
<feColorMatrix in="SourceAlpha" type="matrix" values="0 0 0 0 0 0 0 0 0 0 0 0 0 0 0 0 0 0 127 0"/>
<feOffset dy="1"/>
<feGaussianBlur stdDeviation="2"/>
<feColorMatrix type="matrix" values="0 0 0 0 0 0 0 0 0 0 0 0 0 0 0 0 0 0 0.148805 0"/>
<feBlend mode="normal" in2="BackgroundImageFix" result="effect1_dropShadow"/>
<feBlend mode="normal" in="SourceGraphic" in2="effect1_dropShadow" result="shape"/>
</filter>
<filter id="filter1_d" x="9.99927" y="6.50012" width="11.8067" height="16.9996" filterUnits="userSpaceOnUse" color-interpolation-filters="sRGB">
<feFlood flood-opacity="0" result="BackgroundImageFix"/>
<feColorMatrix in="SourceAlpha" type="matrix" values="0 0 0 0 0 0 0 0 0 0 0 0 0 0 0 0 0 0 127 0"/>
<feOffset/>
<feGaussianBlur stdDeviation="0.5"/>
<feColorMatrix type="matrix" values="0 0 0 0 0 0 0 0 0 0 0 0 0 0 0 0 0 0 0.101053 0"/>
<feBlend mode="normal" in2="BackgroundImageFix" result="effect1_dropShadow"/>
<feBlend mode="normal" in="SourceGraphic" in2="effect1_dropShadow" result="shape"/>
</filter>
<radialGradient id="paint0_radial" cx="0" cy="0" r="1" gradientUnits="userSpaceOnUse" gradientTransform="translate(16 3) rotate(90) scale(38.2237)">
<stop stop-color="#6B6BEA"/>
<stop offset="1" stop-color="#3C92C9"/>
</radialGradient>
</defs>
</svg>
