<svg xmlns="http://www.w3.org/2000/svg" xmlns:xlink="http://www.w3.org/1999/xlink" width="13" height="13" viewBox="0 0 13 13"><defs><path id="p6waa" d="M1004.71 76.297a.955.955 0 0 1 .288.702c0 .27-.099.506-.297.704a.96.96 0 0 1-.703.296.928.928 0 0 1-.702-.296l-2.68-2.673a5.345 5.345 0 0 1-3.116.97 5.41 5.41 0 0 1-2.137-.434 5.499 5.499 0 0 1-1.757-1.172 5.49 5.49 0 0 1-1.172-1.758 5.406 5.406 0 0 1-.433-2.137c0-.745.144-1.457.433-2.137.289-.68.68-1.266 1.172-1.758a5.49 5.49 0 0 1 1.757-1.172 5.408 5.408 0 0 1 2.137-.434c.745 0 1.456.145 2.136.434.68.289 1.266.68 1.758 1.172a5.504 5.504 0 0 1 1.171 1.758c.289.68.434 1.392.434 2.137a5.354 5.354 0 0 1-.969 3.118zm-4.738-3.325a3.37 3.37 0 0 0 1.027-2.473c0-.964-.342-1.788-1.027-2.473A3.368 3.368 0 0 0 997.5 67c-.964 0-1.788.342-2.472 1.027A3.37 3.37 0 0 0 994 70.5a3.37 3.37 0 0 0 1.027 2.473 3.369 3.369 0 0 0 2.472 1.027c.963 0 1.787-.342 2.472-1.027z"/></defs><g><g transform="translate(-992 -65)"><use fill="#fff" xlink:href="#p6waa"/></g></g></svg>