<svg xmlns="http://www.w3.org/2000/svg" xmlns:xlink="http://www.w3.org/1999/xlink" width="26" height="33" viewBox="0 0 26 33"><defs><path id="4pxya" d="M797.046 2251.057c-.275 2.462-1.546 4.7-3.366 6.32-1.82 1.621-4.196 2.624-6.683 2.624l.784-7.013c.262-2.337.526-4.68.787-7.02l.025-.23c.01-.077.024-.152.037-.228.011-.076.022-.152.038-.228.013-.073.027-.149.046-.224.013-.076.032-.15.048-.225.02-.073.038-.148.057-.221.022-.076.04-.149.062-.221a7.682 7.682 0 0 1 .143-.436c.024-.072.051-.145.075-.215.027-.072.051-.141.08-.214.03-.069.06-.138.09-.211.03-.07.062-.139.091-.208.033-.07.068-.139.098-.205.034-.07.067-.139.102-.204.035-.07.07-.136.105-.202.038-.066.075-.135.113-.2a5.92 5.92 0 0 1 .165-.277 4.443 4.443 0 0 1 .193-.305c.033-.046.063-.093.095-.14l.049-.07a7.203 7.203 0 0 1 .27-.369 10.553 10.553 0 0 1 .634-.753l.087-.094.01-.009a10.692 10.692 0 0 1 .313-.317l.01-.01a10.705 10.705 0 0 1 .352-.325c.048-.042.096-.086.145-.127.057-.046.116-.096.173-.146.06-.049.121-.095.18-.141l.027-.02a10.757 10.757 0 0 1 .922-.642c.057-.038.124-.076.186-.114l.021-.012a10.557 10.557 0 0 1 .375-.212l.09-.047a10.423 10.423 0 0 1 .467-.23l.06-.027a2.09 2.09 0 0 0 .094-.042l.113-.05c.065-.027.125-.053.189-.077a9.845 9.845 0 0 1 .44-.166l.013-.005a9.984 9.984 0 0 1 .399-.13l.037-.012a3.247 3.247 0 0 0 .093-.026l.128-.037c.055-.014.109-.029.164-.042a9.727 9.727 0 0 1 .505-.116c.075-.013.15-.03.226-.043.075-.013.153-.023.226-.036l.079-.01a9.477 9.477 0 0 1 .38-.046l.012-.001a9.38 9.38 0 0 1 .245-.021l.209-.015c.071-.003.145-.006.217-.006a8.41 8.41 0 0 1 .244-.003l-.061.543c-.146 1.311-.291 2.624-.438 3.932-.167 1.488-.334 2.98-.499 4.468h-.002l-.569 5.09z"/><path id="4pxyb" d="M798.615 2237.025h14.207c-.275 2.461-1.547 4.7-3.369 6.32-1.822 1.62-4.196 2.623-6.686 2.623h-14.199l.025-.23c.01-.077.024-.152.037-.228.011-.076.022-.152.038-.228.013-.073.027-.149.046-.224.013-.076.032-.15.048-.225.02-.073.038-.148.057-.221.022-.076.04-.149.062-.221a7.682 7.682 0 0 1 .143-.436c.024-.072.051-.145.075-.215.027-.072.051-.141.08-.214.03-.07.06-.138.09-.211.03-.07.062-.139.091-.208.033-.07.068-.139.098-.205.034-.07.067-.139.102-.204.035-.07.07-.136.105-.202.038-.066.075-.135.113-.2a10.208 10.208 0 0 1 .515-.81c.031-.047.064-.092.097-.137a10.503 10.503 0 0 1 .881-1.06l.007-.007a10.72 10.72 0 0 1 .316-.32l.009-.008a10.732 10.732 0 0 1 .353-.327c.048-.042.096-.086.145-.127.057-.046.116-.096.173-.146.06-.049.121-.095.18-.141l.027-.02a10.757 10.757 0 0 1 .922-.642c.057-.038.124-.076.186-.114l.021-.012a10.557 10.557 0 0 1 .375-.212l.09-.047a10.423 10.423 0 0 1 .467-.23l.06-.027a2.09 2.09 0 0 0 .094-.042l.113-.05c.065-.027.125-.053.189-.077a9.845 9.845 0 0 1 .44-.166l.013-.005a9.984 9.984 0 0 1 .399-.13l.037-.012a3.247 3.247 0 0 0 .093-.026l.128-.037c.055-.014.109-.029.164-.042a9.727 9.727 0 0 1 .505-.116c.075-.013.15-.03.226-.043.075-.013.154-.023.226-.036l.079-.01a9.477 9.477 0 0 1 .38-.046l.012-.001a9.38 9.38 0 0 1 .245-.021l.209-.015c.071-.003.145-.006.217-.006a8.41 8.41 0 0 1 .244-.003z"/><path id="4pxyc" d="M788.568 2245.968h9.049c.165-1.488.332-2.98.499-4.468.167-1.488.332-2.984.499-4.475-.076 0-.157 0-.232.003-.076 0-.154.003-.23.006-.08.007-.158.01-.234.017l-.232.02c-.075.006-.15.016-.228.026l-.23.03c-.072.013-.15.023-.226.036-.075.014-.151.03-.226.043l-.224.05a4.548 4.548 0 0 0-.224.052c-.075.017-.148.037-.22.056-.076.02-.149.044-.222.063l-.218.07a5.037 5.037 0 0 0-.218.072l-.218.08c-.07.026-.14.052-.21.082-.073.026-.14.056-.214.086-.07.03-.137.062-.207.092-.07.033-.138.063-.205.1-.073.032-.14.065-.207.098l-.205.106a5.148 5.148 0 0 0-.2.112l-.196.112c-.065.04-.135.08-.194.119l-.197.125c-.062.04-.127.083-.189.126a4.356 4.356 0 0 0-.185.132c-.066.043-.124.089-.186.135l-.184.139c-.059.046-.12.092-.18.141a6.79 6.79 0 0 1-.173.146c-.059.05-.116.102-.172.152-.057.05-.113.102-.167.155-.057.05-.11.102-.167.155-.057.053-.111.109-.162.161-.054.053-.105.11-.162.165-.051.053-.1.11-.154.166-.05.059-.1.115-.153.171-.046.06-.097.116-.146.175-.048.06-.096.116-.142.175-.049.063-.094.122-.143.182l-.135.181c-.046.063-.092.125-.132.188-.046.063-.086.126-.13.188a4.436 4.436 0 0 0-.123.191c-.04.063-.078.13-.119.195-.04.066-.078.129-.116.195l-.113.201c-.035.066-.07.132-.105.202-.035.065-.068.135-.102.204-.03.066-.065.136-.098.205-.03.07-.062.139-.091.208-.03.073-.06.142-.09.211-.029.073-.053.142-.08.214-.024.07-.051.143-.075.215a7.682 7.682 0 0 0-.143.436c-.022.072-.04.145-.062.22l-.057.222c-.016.076-.035.149-.048.225-.02.075-.033.151-.046.224a3.228 3.228 0 0 0-.038.228c-.013.076-.027.151-.037.227l-.025.231z"/><path id="4pxyd" d="M790.686 2226.998h14.202c2.49 0 4.64 1.01 6.099 2.63 1.457 1.621 2.23 3.859 1.956 6.317h-14.204c-2.49 0-4.644-1.006-6.101-2.626-1.459-1.62-2.226-3.859-1.952-6.32z"/></defs><g><g transform="translate(-787 -2227)"><g><use fill="#919191" xlink:href="#4pxya"/></g><g><use fill="#919191" xlink:href="#4pxyb"/></g><g><use fill="#2f2f2f" xlink:href="#4pxyc"/></g><g><use fill="#0099d2" xlink:href="#4pxyd"/></g></g></g></svg>