<svg xmlns="http://www.w3.org/2000/svg" xmlns:xlink="http://www.w3.org/1999/xlink" width="44" height="44" viewBox="0 0 44 44"><defs><path id="xx4na" d="M1344 39c12.15 0 22 9.85 22 22s-9.85 22-22 22-22-9.85-22-22 9.85-22 22-22z"/><path id="xx4nb" d="M1335.44 52.16a5 5 0 0 1 5-5h7.13a5 5 0 0 1 5 5v8.19a5 5 0 0 1-5 5h-7.13a5 5 0 0 1-5-5z"/><path id="xx4nc" d="M1349.889 75h-11.776c-2.595 0-4.848-1.635-5.612-4.064l-3.227-10.217a5.709 5.709 0 0 1 .853-5.151c1.118-1.512 2.85-2.38 4.76-2.38h18.229c1.902 0 3.634.868 4.752 2.383a5.729 5.729 0 0 1 .86 5.169l-3.229 10.222c-.758 2.414-3.013 4.037-5.61 4.037z"/><clipPath id="xx4nd"><use fill="#fff" xlink:href="#xx4na"/></clipPath><clipPath id="xx4ne"><use fill="#fff" xlink:href="#xx4nb"/></clipPath><clipPath id="xx4nf"><use fill="#fff" xlink:href="#xx4nc"/></clipPath></defs><g><g transform="translate(-1322 -39)"><g><use fill="#fff" xlink:href="#xx4na"/><use fill="#fff" fill-opacity="0" stroke="#2f2f2f" stroke-miterlimit="50" stroke-width="4" clip-path="url(&quot;#xx4nd&quot;)" xlink:href="#xx4na"/></g><g><use fill="#fff" xlink:href="#xx4nb"/><use fill="#fff" fill-opacity="0" stroke="#2f2f2f" stroke-miterlimit="50" stroke-width="4" clip-path="url(&quot;#xx4ne&quot;)" xlink:href="#xx4nb"/></g><g><use fill="#fff" xlink:href="#xx4nc"/><use fill="#fff" fill-opacity="0" stroke="#2f2f2f" stroke-miterlimit="50" stroke-width="4" clip-path="url(&quot;#xx4nf&quot;)" xlink:href="#xx4nc"/></g></g></g></svg>