<svg xmlns="http://www.w3.org/2000/svg" xmlns:xlink="http://www.w3.org/1999/xlink" width="66" height="52" viewBox="0 0 66 52"><defs><path id="6opfa" d="M219.222 78.732h24.364c.442-4.06.893-8.128 1.342-12.187.45-4.058.892-8.137 1.342-12.204-.203 0-.421 0-.624.008-.203 0-.413.01-.617.018-.217.018-.428.027-.631.046l-.624.053c-.202.018-.406.045-.616.072-.204.028-.407.054-.617.081-.196.036-.407.064-.61.1-.203.036-.406.08-.609.117-.203.044-.4.09-.602.134-.204.045-.407.09-.603.144-.203.045-.398.1-.595.153-.203.054-.399.117-.594.171l-.588.19c-.196.062-.392.125-.588.197-.195.072-.384.144-.587.217-.19.07-.378.143-.566.224-.196.072-.377.153-.574.235-.188.08-.37.17-.558.251-.19.09-.37.172-.552.27-.195.09-.377.18-.558.27-.181.1-.363.19-.552.289-.18.098-.355.197-.536.306-.174.098-.355.206-.53.306-.175.107-.363.215-.522.323-.182.117-.356.226-.53.342-.166.108-.341.225-.508.342-.174.118-.333.235-.5.36-.175.117-.334.243-.5.37-.168.126-.328.251-.495.377-.159.127-.326.253-.486.387-.152.136-.311.27-.464.397-.16.134-.312.279-.464.414-.152.135-.305.278-.45.423-.152.135-.297.278-.45.423-.152.144-.298.297-.435.44-.145.144-.283.298-.436.45-.138.145-.268.298-.413.45-.138.163-.269.316-.414.469-.123.162-.261.315-.391.477-.13.162-.261.315-.385.477-.13.171-.253.333-.385.495-.115.162-.246.333-.362.495-.124.171-.247.341-.356.513-.123.17-.232.342-.348.513-.116.171-.225.342-.334.521-.108.172-.21.352-.319.533-.109.179-.21.35-.311.53-.103.18-.204.37-.305.549-.095.18-.19.36-.284.55-.094.179-.181.368-.275.557-.08.18-.175.37-.262.559-.08.189-.167.378-.246.567-.08.198-.16.387-.24.576-.08.197-.145.386-.218.584-.064.19-.138.388-.202.586-.072.198-.138.395-.203.593a8.96 8.96 0 0 0-.182.595c-.058.198-.109.396-.167.602l-.152.604c-.043.207-.095.405-.13.612-.051.207-.088.413-.124.612a8.753 8.753 0 0 0-.102.621c-.036.207-.072.413-.101.62l-.065.63z"/><path id="6opfb" d="M224.925 26.996h38.235c6.704 0 12.494 2.754 16.42 7.173 3.924 4.42 6.006 10.523 5.266 17.228H246.604c-6.704 0-12.501-2.745-16.426-7.164-3.926-4.42-5.993-10.523-5.253-17.237z"/></defs><g><g transform="translate(-219 -27)"><use fill="#2f2f2f" xlink:href="#6opfa"/></g><g transform="translate(-219 -27)"><use fill="#0099d2" xlink:href="#6opfb"/></g></g></svg>