<?xml version="1.0" encoding="UTF-8"?>
<svg width="25px" height="25px" viewBox="0 0 25 25" version="1.1" xmlns="http://www.w3.org/2000/svg" xmlns:xlink="http://www.w3.org/1999/xlink">
    <!-- Generator: Sketch 52.3 (67297) - http://www.bohemiancoding.com/sketch -->
    <title>Group 2</title>
    <desc>Created with Sketch.</desc>
    <g id="Page-1" stroke="none" stroke-width="1" fill="none" fill-rule="evenodd">
        <g id="Crm-Test" transform="translate(-1157.000000, -245.000000)">
            <g id="Group-2" transform="translate(1157.000000, 245.000000)">
                <rect id="Rectangle" fill="#C2CEFF" x="0" y="0" width="25" height="25" rx="12.5"></rect>
                <path d="M18.35,6.319 C18.09,6.054 17.74,5.921 17.39,5.921 C17.04,5.921 16.7,6.054 16.43,6.319 C16.43,6.319 16.43,6.325 16.41,6.337 C16.41,6.344 16.4,6.353 16.39,6.363 C16.39,6.364 16.39,6.365 16.38,6.366 C16.38,6.367 16.38,6.368 16.38,6.369 L6.56,16.186 C6.53,16.22 6.5,16.263 6.49,16.311 L5.93,18.399 C5.92,18.436 5.92,18.474 5.92,18.51 C5.93,18.55 5.94,18.589 5.97,18.624 C5.98,18.639 5.99,18.654 6,18.668 C6.06,18.722 6.13,18.75 6.2,18.75 C6.21,18.75 6.23,18.749 6.24,18.746 C6.25,18.745 6.25,18.745 6.26,18.743 L6.27,18.74 L8.36,18.18 C8.41,18.167 8.45,18.142 8.49,18.107 L18.3,8.292 C18.31,8.288 18.31,8.284 18.31,8.281 L18.35,8.238 C18.88,7.708 18.88,6.848 18.35,6.319 Z M17.96,6.713 C18.27,7.025 18.27,7.532 17.96,7.844 C17.9,7.901 17.85,7.953 17.8,8.001 L17.79,8.013 L17.72,8.082 L16.59,6.952 L16.83,6.713 C16.98,6.562 17.18,6.479 17.39,6.479 C17.61,6.479 17.81,6.563 17.96,6.713 Z M7.83,17.744 L6.93,16.84 L6.59,18.077 L7.83,17.744 Z" id="Shape" fill="#FFFFFF"></path>
            </g>
        </g>
    </g>
</svg>