<?xml version="1.0" encoding="UTF-8"?>
<svg width="20px" height="20px" viewBox="0 0 20 20" version="1.1" xmlns="http://www.w3.org/2000/svg" xmlns:xlink="http://www.w3.org/1999/xlink">
    <!-- Generator: Sketch 52.3 (67297) - http://www.bohemiancoding.com/sketch -->
    <title>Shape</title>
    <desc>Created with Sketch.</desc>
    <defs>
        <radialGradient cx="49.9996724%" cy="0%" fx="49.9996724%" fy="0%" r="221.931498%" id="radialGradient-1">
            <stop stop-color="#4A90E2" offset="0%"></stop>
            <stop stop-color="#4361CE" offset="100%"></stop>
        </radialGradient>
    </defs>
    <g id="Page-1" stroke="none" stroke-width="1" fill="none" fill-rule="evenodd">
        <g id="Crm-Test" transform="translate(-476.000000, -96.000000)" fill="url(#radialGradient-1)">
            <path d="M495.212,104 C495.212,99.5912 491.62,96 487.212,96 C482.803,96 479.212,99.5912 479.212,104 C479.212,105.917 479.892,107.678 481.023,109.058 L476.246,113.834 C476.037,114.035 475.953,114.333 476.026,114.613 C476.099,114.894 476.318,115.113 476.598,115.186 C476.879,115.259 477.177,115.175 477.377,114.966 L482.154,110.189 C483.534,111.319 485.294,112 487.212,112 C491.62,112 495.212,108.409 495.212,104 Z M480.812,104 C480.812,100.456 483.668,97.6 487.212,97.6 C490.756,97.6 493.612,100.456 493.612,104 C493.612,107.544 490.756,110.4 487.212,110.4 C483.668,110.4 480.812,107.544 480.812,104 Z" id="Shape"></path>
        </g>
    </g>
</svg>