<svg width="94" height="32" viewBox="0 0 94 32" fill="none" xmlns="http://www.w3.org/2000/svg">
<g filter="url(#filter0_d)">
<path fill-rule="evenodd" clip-rule="evenodd" d="M16 27C22.6274 27 28 21.6274 28 15C28 8.37258 22.6274 3 16 3C9.37258 3 4 8.37258 4 15C4 21.6274 9.37258 27 16 27Z" fill="url(#paint0_radial)"/>
</g>
<g filter="url(#filter1_d)">
<path fill-rule="evenodd" clip-rule="evenodd" d="M19.0356 7.50012C18.8455 7.50012 18.665 7.58368 18.542 7.72863L14.3339 12.6876L15.2124 12.9859C15.3578 13.0353 15.4561 13.1713 15.4573 13.3249L15.4796 16.0873C15.4809 16.2447 15.3799 16.3849 15.2301 16.4335L14.2605 16.7486L18.5416 22.25C18.6642 22.4076 18.8527 22.4998 19.0525 22.4998H20.1577C20.6473 22.4998 20.9597 21.9774 20.7281 21.5461L17.1993 14.975C17.0986 14.7874 17.0965 14.5622 17.1938 14.3729L20.2405 8.44334C20.4618 8.01253 20.149 7.50012 19.6646 7.50012H19.0356ZM11.8592 8.39759C11.8592 7.89361 12.4096 7.58291 12.8411 7.84338L13.4043 8.18339C13.5984 8.30059 13.7171 8.51083 13.7171 8.7376V21.6342C13.7171 22.1251 13.192 22.4374 12.7607 22.2031L12.1975 21.897C11.989 21.7838 11.8592 21.5655 11.8592 21.3282V16.607L11.2612 16.3936C11.1185 16.3426 11.0228 16.208 11.0216 16.0565L10.9993 13.2899C10.998 13.1324 11.099 12.9923 11.2487 12.9436L11.8592 12.7453V8.39759Z" fill="white"/>
</g>
<path d="M83.784 22.296C83.5973 22.296 83.4427 22.2666 83.32 22.208C83.1973 22.1546 83.0987 22.0773 83.024 21.976C82.9493 21.8746 82.896 21.752 82.864 21.608C82.8373 21.464 82.824 21.3066 82.824 21.136V18.664H82.224V18.392L82.832 18.36L82.88 17.248H83.184V18.36H84.296V18.664H83.184V21.168C83.184 21.2906 83.192 21.4026 83.208 21.504C83.2293 21.6 83.264 21.6853 83.312 21.76C83.36 21.8293 83.424 21.8853 83.504 21.928C83.5893 21.9653 83.6987 21.984 83.832 21.984C83.9067 21.984 83.9867 21.9733 84.072 21.952C84.1627 21.9253 84.2427 21.896 84.312 21.864L84.408 22.152C84.296 22.1946 84.184 22.2293 84.072 22.256C83.96 22.2826 83.864 22.296 83.784 22.296ZM86.5983 22.296C86.3529 22.296 86.1209 22.2506 85.9023 22.16C85.6889 22.0693 85.5023 21.9386 85.3423 21.768C85.1823 21.592 85.0543 21.3813 84.9583 21.136C84.8676 20.8853 84.8223 20.6026 84.8223 20.288C84.8223 19.9733 84.8676 19.6906 84.9583 19.44C85.0543 19.1893 85.1796 18.9786 85.3343 18.808C85.4943 18.632 85.6729 18.4986 85.8703 18.408C86.0729 18.312 86.2809 18.264 86.4943 18.264C86.9529 18.264 87.3129 18.4186 87.5743 18.728C87.8356 19.0373 87.9663 19.4746 87.9663 20.04C87.9663 20.088 87.9663 20.136 87.9663 20.184C87.9663 20.232 87.9609 20.28 87.9503 20.328H85.1823C85.1876 20.568 85.2249 20.792 85.2943 21C85.3636 21.2026 85.4596 21.3786 85.5822 21.528C85.7103 21.672 85.8623 21.7866 86.0383 21.872C86.2143 21.952 86.4116 21.992 86.6303 21.992C86.8383 21.992 87.0249 21.9626 87.1903 21.904C87.3609 21.84 87.5183 21.7546 87.6623 21.648L87.8063 21.92C87.6516 22.0106 87.4809 22.096 87.2943 22.176C87.1129 22.256 86.8809 22.296 86.5983 22.296ZM85.1823 20.04H87.6303C87.6303 19.544 87.5289 19.176 87.3263 18.936C87.1236 18.6906 86.8489 18.568 86.5023 18.568C86.3369 18.568 86.1796 18.6026 86.0303 18.672C85.8809 18.736 85.7449 18.832 85.6223 18.96C85.5049 19.088 85.4063 19.2426 85.3263 19.424C85.2516 19.6053 85.2036 19.8106 85.1823 20.04ZM89.9374 22.296C89.6494 22.296 89.3854 22.2453 89.1454 22.144C88.9054 22.0373 88.7001 21.912 88.5294 21.768L88.7374 21.504C88.9028 21.6426 89.0788 21.76 89.2654 21.856C89.4521 21.9466 89.6841 21.992 89.9614 21.992C90.2654 21.992 90.4921 21.9173 90.6414 21.768C90.7961 21.6133 90.8734 21.4346 90.8734 21.232C90.8734 21.1146 90.8441 21.0106 90.7854 20.92C90.7321 20.8293 90.6601 20.752 90.5694 20.688C90.4788 20.624 90.3774 20.568 90.2654 20.52C90.1588 20.472 90.0494 20.4266 89.9374 20.384C89.7934 20.3306 89.6468 20.2746 89.4974 20.216C89.3534 20.1573 89.2228 20.088 89.1054 20.008C88.9881 19.9226 88.8921 19.824 88.8174 19.712C88.7481 19.5946 88.7134 19.4533 88.7134 19.288C88.7134 19.1493 88.7401 19.0186 88.7934 18.896C88.8468 18.768 88.9268 18.6586 89.0334 18.568C89.1401 18.472 89.2681 18.3973 89.4174 18.344C89.5721 18.2906 89.7508 18.264 89.9534 18.264C90.1561 18.264 90.3534 18.3013 90.5454 18.376C90.7428 18.4506 90.9108 18.5466 91.0494 18.664L90.8574 18.912C90.7294 18.816 90.5934 18.736 90.4494 18.672C90.3054 18.6026 90.1348 18.568 89.9374 18.568C89.7881 18.568 89.6601 18.5893 89.5534 18.632C89.4468 18.6693 89.3561 18.72 89.2814 18.784C89.2121 18.848 89.1588 18.9226 89.1214 19.008C89.0894 19.0933 89.0734 19.1786 89.0734 19.264C89.0734 19.376 89.0974 19.472 89.1454 19.552C89.1988 19.6266 89.2681 19.6933 89.3534 19.752C89.4388 19.8106 89.5348 19.864 89.6414 19.912C89.7534 19.9546 89.8654 19.9973 89.9774 20.04C90.1268 20.0986 90.2761 20.1573 90.4254 20.216C90.5748 20.2746 90.7081 20.3466 90.8254 20.432C90.9481 20.5173 91.0468 20.624 91.1214 20.752C91.1961 20.8746 91.2334 21.0293 91.2334 21.216C91.2334 21.36 91.2041 21.4986 91.1454 21.632C91.0921 21.76 91.0094 21.8746 90.8974 21.976C90.7854 22.072 90.6494 22.1493 90.4894 22.208C90.3294 22.2666 90.1454 22.296 89.9374 22.296ZM93.1434 22.296C92.9567 22.296 92.802 22.2666 92.6794 22.208C92.5567 22.1546 92.458 22.0773 92.3834 21.976C92.3087 21.8746 92.2554 21.752 92.2234 21.608C92.1967 21.464 92.1834 21.3066 92.1834 21.136V18.664H91.5834V18.392L92.1914 18.36L92.2394 17.248H92.5434V18.36H93.6554V18.664H92.5434V21.168C92.5434 21.2906 92.5514 21.4026 92.5674 21.504C92.5887 21.6 92.6234 21.6853 92.6714 21.76C92.7194 21.8293 92.7834 21.8853 92.8634 21.928C92.9487 21.9653 93.058 21.984 93.1914 21.984C93.266 21.984 93.346 21.9733 93.4314 21.952C93.522 21.9253 93.602 21.896 93.6714 21.864L93.7674 22.152C93.6554 22.1946 93.5434 22.2293 93.4314 22.256C93.3194 22.2826 93.2234 22.296 93.1434 22.296Z" fill="white"/>
<g filter="url(#filter2_d)">
<path d="M46.631 22.228C45.8457 22.228 45.1047 22.095 44.408 21.829C43.7113 21.5503 43.097 21.145 42.565 20.613C42.0457 20.081 41.634 19.4223 41.33 18.637C41.026 17.839 40.874 16.9207 40.874 15.882C40.874 14.856 41.0323 13.944 41.349 13.146C41.6657 12.3353 42.09 11.6513 42.622 11.094C43.154 10.5367 43.7747 10.1123 44.484 9.821C45.1933 9.52967 45.9407 9.384 46.726 9.384C47.524 9.384 48.2397 9.54867 48.873 9.878C49.5063 10.1947 50.032 10.5683 50.45 10.999L48.968 12.785C48.6513 12.4937 48.3157 12.2593 47.961 12.082C47.619 11.892 47.2263 11.797 46.783 11.797C46.365 11.797 45.966 11.892 45.586 12.082C45.2187 12.2593 44.8957 12.519 44.617 12.861C44.351 13.203 44.1357 13.621 43.971 14.115C43.819 14.609 43.743 15.1663 43.743 15.787C43.743 17.0663 44.0153 18.0607 44.56 18.77C45.1047 19.4667 45.833 19.815 46.745 19.815C47.2517 19.815 47.7013 19.7073 48.094 19.492C48.4993 19.264 48.854 18.9853 49.158 18.656L50.64 20.404C49.6013 21.62 48.265 22.228 46.631 22.228ZM52.5216 22V9.612H56.9866C57.6453 9.612 58.2596 9.67533 58.8296 9.802C59.4123 9.92867 59.9189 10.144 60.3496 10.448C60.7803 10.7393 61.1223 11.132 61.3756 11.626C61.6289 12.12 61.7556 12.7343 61.7556 13.469C61.7556 14.381 61.5529 15.1347 61.1476 15.73C60.7549 16.3127 60.2229 16.7497 59.5516 17.041L62.3636 22H59.2286L56.8536 17.535H55.3146V22H52.5216ZM55.3146 15.312H56.7586C57.4933 15.312 58.0506 15.16 58.4306 14.856C58.8233 14.5393 59.0196 14.077 59.0196 13.469C59.0196 12.861 58.8233 12.4367 58.4306 12.196C58.0506 11.9553 57.4933 11.835 56.7586 11.835H55.3146V15.312ZM64.1739 22V9.612H67.2329L69.2279 15.122C69.3546 15.4893 69.4749 15.8693 69.5889 16.262C69.7029 16.642 69.8233 17.022 69.9499 17.402H70.0259C70.1526 17.022 70.2666 16.642 70.3679 16.262C70.4819 15.8693 70.6023 15.4893 70.7289 15.122L72.6859 9.612H75.7259V22H73.1799V17.459C73.1799 17.155 73.1926 16.8193 73.2179 16.452C73.2433 16.0847 73.2749 15.7173 73.3129 15.35C73.3509 14.97 73.3889 14.6027 73.4269 14.248C73.4649 13.8807 73.5029 13.545 73.5409 13.241H73.4649L72.4579 16.186L70.6909 20.917H69.1519L67.3849 16.186L66.3969 13.241H66.3209C66.3589 13.545 66.3969 13.8807 66.4349 14.248C66.4729 14.6027 66.5109 14.97 66.5489 15.35C66.5869 15.7173 66.6186 16.0847 66.6439 16.452C66.6693 16.8193 66.6819 17.155 66.6819 17.459V22H64.1739Z" fill="white"/>
</g>
<defs>
<filter id="filter0_d" x="0" y="0" width="32" height="32" filterUnits="userSpaceOnUse" color-interpolation-filters="sRGB">
<feFlood flood-opacity="0" result="BackgroundImageFix"/>
<feColorMatrix in="SourceAlpha" type="matrix" values="0 0 0 0 0 0 0 0 0 0 0 0 0 0 0 0 0 0 127 0"/>
<feOffset dy="1"/>
<feGaussianBlur stdDeviation="2"/>
<feColorMatrix type="matrix" values="0 0 0 0 0 0 0 0 0 0 0 0 0 0 0 0 0 0 0.148805 0"/>
<feBlend mode="normal" in2="BackgroundImageFix" result="effect1_dropShadow"/>
<feBlend mode="normal" in="SourceGraphic" in2="effect1_dropShadow" result="shape"/>
</filter>
<filter id="filter1_d" x="9.99927" y="6.50012" width="11.8067" height="16.9996" filterUnits="userSpaceOnUse" color-interpolation-filters="sRGB">
<feFlood flood-opacity="0" result="BackgroundImageFix"/>
<feColorMatrix in="SourceAlpha" type="matrix" values="0 0 0 0 0 0 0 0 0 0 0 0 0 0 0 0 0 0 127 0"/>
<feOffset/>
<feGaussianBlur stdDeviation="0.5"/>
<feColorMatrix type="matrix" values="0 0 0 0 0 0 0 0 0 0 0 0 0 0 0 0 0 0 0.101053 0"/>
<feBlend mode="normal" in2="BackgroundImageFix" result="effect1_dropShadow"/>
<feBlend mode="normal" in="SourceGraphic" in2="effect1_dropShadow" result="shape"/>
</filter>
<filter id="filter2_d" x="38.874" y="7.38403" width="38.8519" height="16.844" filterUnits="userSpaceOnUse" color-interpolation-filters="sRGB">
<feFlood flood-opacity="0" result="BackgroundImageFix"/>
<feColorMatrix in="SourceAlpha" type="matrix" values="0 0 0 0 0 0 0 0 0 0 0 0 0 0 0 0 0 0 127 0"/>
<feOffset/>
<feGaussianBlur stdDeviation="1"/>
<feColorMatrix type="matrix" values="0 0 0 0 0 0 0 0 0 0 0 0 0 0 0 0 0 0 0.0547158 0"/>
<feBlend mode="normal" in2="BackgroundImageFix" result="effect1_dropShadow"/>
<feBlend mode="normal" in="SourceGraphic" in2="effect1_dropShadow" result="shape"/>
</filter>
<radialGradient id="paint0_radial" cx="0" cy="0" r="1" gradientUnits="userSpaceOnUse" gradientTransform="translate(16 3) rotate(90) scale(38.2237)">
<stop stop-color="#6B6BEA"/>
<stop offset="1" stop-color="#3C92C9"/>
</radialGradient>
</defs>
</svg>
