<svg width="36" height="36" viewBox="0 0 36 36" fill="none" xmlns="http://www.w3.org/2000/svg">
<path d="M3.93934 16.9393L2.87868 18L3.93934 19.0607L16.9393 32.0607L18 33.1213L19.0607 32.0607L32.0607 19.0607L33.1213 18L32.0607 16.9393L19.0607 3.93934L18 2.87868L16.9393 3.93934L3.93934 16.9393Z" fill="#17181C" stroke="url(#paint0_linear)" stroke-width="3"/>
<path d="M8.29289 17.2929L7.58579 18L8.29289 18.7071L17.2929 27.7071L18 28.4142L18.7071 27.7071L27.7071 18.7071L28.4142 18L27.7071 17.2929L18.7071 8.29289L18 7.58579L17.2929 8.29289L8.29289 17.2929Z" fill="url(#paint1_linear)" stroke="#17181C" stroke-width="2"/>
<path d="M8 18H28L18 8L8 18Z" fill="#17181C"/>
<defs>
<linearGradient id="paint0_linear" x1="18" y1="5" x2="18" y2="31" gradientUnits="userSpaceOnUse">
<stop stop-color="#F1BC51"/>
<stop offset="1" stop-color="#917444"/>
</linearGradient>
<linearGradient id="paint1_linear" x1="18" y1="27" x2="18" y2="18" gradientUnits="userSpaceOnUse">
<stop stop-color="#E6174F"/>
<stop offset="1" stop-color="#990F35"/>
</linearGradient>
</defs>
</svg>
